<svg width="278" height="74" viewBox="0 0 278 74" fill="none" xmlns="http://www.w3.org/2000/svg">
<g clip-path="url(#clip0_36_37)">
<path d="M162.316 36.9999V30.0189C161.634 32.1741 160.372 33.9544 158.529 35.36C156.686 36.7655 154.65 37.4683 152.42 37.4683C149.477 37.4683 146.953 36.3365 144.847 34.0716C142.74 31.8072 141.687 29.0818 141.687 25.8959C141.687 22.71 142.733 19.9854 144.823 17.7205C146.914 15.4561 149.446 14.3235 152.42 14.3235C154.65 14.3235 156.686 15.0263 158.529 16.4318C160.371 17.8374 161.634 19.6177 162.316 21.7732V6.17139H163.198V37.0001H162.316V36.9999ZM145.497 18.3529C143.576 20.4459 142.617 22.9605 142.617 25.8962C142.617 28.8327 143.576 31.3473 145.497 33.4394C147.417 35.5324 149.725 36.5785 152.42 36.5785C155.145 36.5785 157.476 35.5324 159.412 33.4394C161.347 31.3473 162.316 28.8327 162.316 25.8962C162.316 22.9605 161.347 20.4459 159.412 18.3529C157.476 16.2607 155.145 15.2138 152.42 15.2138C149.725 15.2138 147.417 16.2607 145.497 18.3529Z" fill="white"/>
<path d="M187.915 25.8958V26.3177H167.798C167.891 29.1603 168.951 31.5813 170.98 33.5798C173.009 35.5789 175.433 36.5785 178.251 36.5785C181.101 36.5785 183.47 35.5477 185.36 33.4862L186.01 34.1422C183.904 36.3605 181.318 37.4688 178.252 37.4688C175.123 37.4688 172.444 36.337 170.214 34.0721C167.984 31.8077 166.869 29.0823 166.869 25.8964C166.869 22.7105 167.906 19.9856 169.982 17.7207C172.057 15.4563 174.55 14.3237 177.462 14.3237C180.343 14.3237 182.805 15.4563 184.849 17.7207C186.893 19.9854 187.915 22.7099 187.915 25.8958ZM177.462 15.2138C174.829 15.2138 172.583 16.2056 170.725 18.1889C168.866 20.1729 167.891 22.601 167.798 25.4745H186.986C186.893 22.6327 185.925 20.2118 184.083 18.2124C182.239 16.2136 180.032 15.2138 177.462 15.2138Z" fill="white"/>
<path d="M206.964 37.2811L196.138 14.792H197.114L206.406 34.0952L207.147 35.8755C207.425 35.1569 207.672 34.5622 207.888 34.093L217.139 14.792H218.114L207.335 37.2811H206.964Z" fill="white"/>
<path d="M219.578 9.28683C219.376 9.08396 219.276 8.84195 219.276 8.56078C219.276 8.27962 219.376 8.03815 219.578 7.83447C219.778 7.6316 220.019 7.53003 220.297 7.53003C220.576 7.53003 220.816 7.63187 221.017 7.83447C221.219 8.03815 221.319 8.27962 221.319 8.56078C221.319 8.84195 221.219 9.08424 221.017 9.28683C220.816 9.49052 220.576 9.59154 220.297 9.59154C220.019 9.59154 219.778 9.49052 219.578 9.28683ZM219.833 36.9998V14.7919H220.716V36.9998H219.833Z" fill="white"/>
<path d="M233.26 37.2811L222.434 14.792H223.41L232.702 34.0952L233.443 35.8755C233.721 35.1569 233.968 34.5622 234.184 34.093L243.434 14.792H244.41L233.631 37.2811H233.26Z" fill="white"/>
<path d="M256.397 14.3235V15.2138C253.64 15.2138 251.386 16.0652 249.637 17.7673C247.887 19.4701 247.012 21.5234 247.012 23.9283V37.0001H246.129V14.7919H247.012V20.0861C248.839 16.2443 251.967 14.3235 256.397 14.3235Z" fill="white"/>
<path d="M277.769 25.8958V26.3177H257.651C257.744 29.1603 258.805 31.5813 260.834 33.5798C262.862 35.5789 265.286 36.5785 268.105 36.5785C270.954 36.5785 273.324 35.5477 275.213 33.4862L275.864 34.1422C273.757 36.3605 271.172 37.4688 268.105 37.4688C264.976 37.4688 262.298 36.337 260.068 34.0721C257.837 31.8077 256.723 29.0823 256.723 25.8964C256.723 22.7105 257.76 19.9856 259.835 17.7207C261.91 15.4563 264.404 14.3237 267.316 14.3237C270.196 14.3237 272.659 15.4563 274.703 17.7207C276.747 19.9854 277.769 22.7099 277.769 25.8958ZM267.315 15.2138C264.683 15.2138 262.437 16.2056 260.579 18.1889C258.72 20.1729 257.745 22.601 257.652 25.4745H276.84C276.747 22.6327 275.779 20.2118 273.936 18.2124C272.093 16.2136 269.886 15.2138 267.315 15.2138Z" fill="white"/>
<path fill-rule="evenodd" clip-rule="evenodd" d="M23.9794 11.0998C24.4936 13.0485 21.659 15.8227 23.415 18.2152C28.7562 18.7192 35.2854 5.37059 29.0597 2.27668C25.2942 1.79703 21.9786 3.13632 19.7459 4.8381C10.8279 11.6359 3.44107 31.327 2.52942 43.2616C1.89496 51.5679 5.24019 57.7499 13.8188 54.6462C22.891 51.3639 26.4993 34.848 36.9623 31.5923C38.3716 27.101 39.9172 21.9996 41.7603 17.3616C43.5374 12.8895 45.4856 8.07409 48.2517 5.12309C49.737 3.53877 51.8389 1.86711 54.4609 1.99223C56.118 3.14919 55.9918 4.99771 55.872 6.54589C55.3478 13.3308 47.2758 20.0467 43.4535 25.3306C41.953 27.4049 39.8593 29.5138 39.22 31.3076C38.6887 32.7983 38.7142 35.3342 38.3732 37.569C37.8672 40.8863 37.1866 43.6429 38.0909 46.6769C40.5329 46.2353 42.445 44.3586 44.3 42.9769C46.0959 41.6395 48.2466 40.327 49.6624 38.7076C51.0315 37.1419 51.1656 34.3453 53.6138 33.8693C54.6501 36.5919 51.6219 39.0058 52.4847 41.5538C54.0333 43.0428 56.9805 41.4645 58.4118 40.9846C58.7305 38.8273 58.0724 36.2316 58.9762 33.8693C60.5516 29.7514 66.3758 26.0911 68.8544 29.8845C68.9464 36.3338 63.5852 37.2838 61.2341 41.2691C62.2275 43.1647 64.5308 44.5647 67.4432 44.9691C69.7422 45.2883 72.4261 44.2463 74.217 45.2538C73.1431 47.021 70.5319 46.7787 68.8547 46.6769C67.4161 46.5893 65.3194 46.2129 63.7744 45.5383C61.9424 44.7386 60.7555 42.886 59.2585 42.6921C57.0994 42.4126 54.75 44.3712 52.7671 43.8305C51.4056 43.4595 50.9647 41.7865 50.2271 40.6996C47.8304 41.8051 46.5482 43.1354 44.0177 44.9688C43.3371 45.4622 42.1311 46.3741 40.913 47.2458C40.0904 47.8344 38.588 49.3147 37.8083 49.238C33.4284 48.8085 37.6714 37.002 37.2439 33.584C34.9911 33.5421 33.044 35.2578 31.5992 36.7148C27.1788 41.1724 24.0435 48.1859 19.463 52.6531C16.4349 55.6063 8.77411 59.2691 3.94006 54.9301C-0.720787 50.7468 1.08594 40.8212 2.8115 33.8693C5.28879 23.8886 10.494 11.6066 16.3588 5.69227C19.1744 2.85297 28.4342 -2.60962 32.1641 2.84612C34.6083 6.42133 32.0178 12.6327 29.9062 15.6538C28.3832 17.833 26.0253 20.3536 23.6971 19.923C20.3518 19.3045 20.6822 12.1155 23.9794 11.0998ZM40.9135 24.7614C42.1908 25.4403 42.5058 23.7818 43.1715 23.0539C46.8012 19.0831 50.6533 15.1478 53.0497 10.2462C53.9201 8.46614 55.7881 5.28791 53.332 3.4153C45.9876 7.29904 43.8412 16.4242 40.9135 24.7614ZM60.3876 38.7076C62.2723 38.3268 63.7521 36.8197 64.9035 35.5768C66.0291 34.3615 67.5241 32.7345 67.4435 30.4537C63.0308 28.7691 59.141 33.7488 60.3876 38.7076Z" fill="#FF2247"/>
<path fill-rule="evenodd" clip-rule="evenodd" d="M105.263 23.3386C106.743 26.0785 103.473 29.8914 104.981 33.5846C108.062 33.9903 110.351 31.5116 112.319 29.8845C112.901 28.0993 113.152 25.9811 115.141 25.6153C116.587 26.8139 115.414 30.6533 116.835 31.8768C120.191 32.6225 122.312 31.5028 124.173 30.169C126.521 28.4858 127.14 24.9457 130.1 24.192C130.876 26.5544 128.493 28.0106 128.124 29.8843C127.722 31.925 128.029 34.5395 128.124 36.7152C128.52 45.7979 130.576 56.0351 130.382 64.038C124.154 63.9257 117.73 62.6472 111.19 62.0457C107.909 61.744 104.516 61.5045 101.312 61.1921C96.3158 60.7045 89.2702 58.8292 83.8131 60.3382C80.0037 61.392 76.3291 63.5994 72.2414 65.1769C62.7055 68.8561 51.5719 71.8241 39.2199 72.8614C37.0538 73.0432 34.6386 73.8048 32.4461 72.8614C31.6903 70.7618 33.5337 69.96 34.7041 68.8766C44.2663 60.025 59.7759 56.5407 79.5796 57.7765C81.1814 57.8764 82.4302 58.2115 84.0952 57.7765C88.575 56.6067 92.6554 53.4583 96.7958 51.2306C98.9826 50.0539 101.125 49.0941 103.287 48.0995C105.337 47.1571 107.497 45.7313 109.779 45.8228C108.957 47.7896 106.403 48.1841 104.698 48.9536C101.121 50.5678 97.727 52.4155 94.2558 54.3615C92.6258 55.2753 90.606 55.9398 89.4579 57.4923C90.3426 58.8368 92.3239 58.7038 93.6914 58.9151C98.3815 59.6409 103.703 59.8534 108.932 60.3382C115.849 60.9799 122.681 62.1799 128.689 62.3305C129.056 54.5528 127.082 46.3353 126.713 38.1382C126.609 35.8306 127.19 33.1734 126.149 31.0229C123.442 31.6211 119.824 34.8363 116.553 33.2999C115.423 32.7696 115.473 31.4004 114.295 30.4537C111.019 32.2075 108.352 35.9949 103.852 35.5768C102.512 34.0817 103.91 29.8262 103.005 27.8923C99.4829 27.9451 100.064 32.1366 96.2319 31.8771C94.4317 33.9331 93.1365 35.9856 90.8696 38.4232C89.3775 40.0275 86.6309 44.1725 84.6604 43.5464C83.0652 43.0396 82.9569 39.8792 83.2493 37.0002C83.54 34.1381 85.0527 32.2721 84.9428 29.6001C82.6868 29.5869 79.4146 29.4963 77.3225 30.454C75.4938 31.2912 75.4376 32.5141 74.5001 34.154C72.6619 33.1487 74.4344 30.4595 75.0646 29.8848C76.82 28.2835 80.4359 28.9838 83.5316 27.8926C86.3817 26.8881 86.743 24.3683 89.1763 24.7617C89.9218 26.8448 87.5243 28.2969 86.6363 30.1693C85.1391 33.3261 84.1772 37.4418 85.2251 41.2691C87.558 40.8218 88.7577 38.4999 90.3054 36.7154C92.5932 34.0776 95.0257 31.839 95.6678 27.3231C97.1504 26.4793 96.9386 28.8207 98.4901 28.7462C101.43 27.6317 102.138 24.2662 105.263 23.3386ZM68.8549 59.4846C56.9696 60.042 47.2933 61.5497 40.0667 66.3152C38.001 67.6775 35.6947 69.2487 34.7043 71.4383C49.8939 71.5273 63.4923 66.9006 74.7819 62.3305C76.4575 61.6521 79.1322 61.4569 79.5799 59.769C76.3351 58.5532 72.24 59.3258 68.8549 59.4846Z" fill="#FF2247"/>
</g>
<defs>
<clipPath id="clip0_36_37">
<rect width="278" height="74" fill="white"/>
</clipPath>
</defs>
</svg>
